# xmcd
#
# Track frame offsets: 
#        150
#        7912
#        24472
#        46177
#        68830
#        84970
#        111217
#        124842
#        130220
#        147940
#        159415
#        182359
#        202755
#
# Disc length: 2748 seconds
#
# Revision: 0
# Processed by: cddbd v1.5.2PL0 Copyright (c) Steve Scherf et al.
# Submitted via: ExactAudioCopy v1.3
#
DISCID=9b0aba0d
DTITLE=Hanif - Oh Lord Jesus Christ Baby
DYEAR=2006
DGENRE=Americana
TTITLE0=Wash Away
TTITLE1=Angry Crowd
TTITLE2=Black Box
TTITLE3=I Feel Better Now
TTITLE4=Tomorrow Is Miles Away From Now
TTITLE5=Crash Helmet Heart
TTITLE6=New Dawning
TTITLE7=A Thing or Two
TTITLE8=Future That I Leave
TTITLE9=Scars
TTITLE10=Start All Over
TTITLE11=Silence
TTITLE12=Song for a Dream
EXTD=
EXTT0=
EXTT1=
EXTT2=
EXTT3=
EXTT4=
EXTT5=
EXTT6=
EXTT7=
EXTT8=
EXTT9=
EXTT10=
EXTT11=
EXTT12=
PLAYORDER=
